<?xml version="1.0" encoding="utf-8"?>
<svg version="1.1" id="Vrstva_1" xmlns="http://www.w3.org/2000/svg" x="0px" y="0px"
	 viewBox="0 0 364 158.2" style="enable-background:new 0 0 364 158.2;" xml:space="preserve"
	 width="124" height="48">
<style type="text/css">
	.st0{fill:#64748B;}
	.st1{fill:none;stroke:#0B0407;stroke-width:2;stroke-miterlimit:10;}
</style>
<path class="st0" d="M6.7,99.7v0.3c0.3,0.2,0.6,0.4,0.8,0.6C7.2,100.3,6.9,100,6.7,99.7z"/>
<path class="st0" d="M12,102.2c-0.1-0.3,0-0.5,0.1-0.7c0,0,0-0.1,0-0.1c0-0.2-0.1-0.5-0.9-1.1c-1.9-1.1-3.5-2.3-4.5-3.6v2.2
	C6.8,99,6.9,99.1,7,99.2C8.5,100.4,10.2,101.4,12,102.2z"/>
<path class="st0" d="M111.9,99.2c-1.3,0.5-2.5,1-3.7,1.5c4.8-2.7-2.4-0.1-2.1-1c-3.1,1.4-6.3,2.8-9.5,4c2.6-1.3,9-3.9,13.6-6.8
	c-1.4,0-0.8-0.9-0.7-1.6c0.1-0.7-0.2-1-3.5,0.2c-2.3,1.6,2.3,0.1-1.8,2.2c-1.9,0.3-3.8,1.1-6.2,2c0-0.6,2.6-1.8,1.9-2.1
	c-3.2,1.2-4.7,2.5-4.8,2.9c-0.6,0,0.4-0.8-1.8-0.3c-4.9,1.5-2.5,2-2.7,2.4c-0.3,0-0.5,0-0.8,0v21.9c0,0.8,0.3,1.5,0.9,2.1
	c0.6,0.6,1.3,0.9,2.2,0.9h19.7c0.9,0,1.6-0.3,2.2-0.9c0.6-0.6,0.9-1.3,0.9-2.1v-27c0,0,0,0,0,0L111.9,99.2z"/>
<path class="st0" d="M80.4,103.5l0.6-1.1c0,0,0,0,0,0c-2.5,1.2-5.5,1.6-8.1,2c-2.6,0.4-5,0.7-6.3,1.9l0.7-2
	c-3.8,0.5-4.4,0.9-4.8,1.4c-0.4,0.4-0.4,1-3,1.5c2-0.5,0.1-0.7,2.5-1.2c-0.7-0.4-5.7,0.1-9.4,0.5c-3.1,0.3-6,0.4-8.9,0.3l10.2,19.1
	c0.3,0.5,0.7,0.9,1.2,1.2c0.5,0.3,1,0.5,1.5,0.5h9.3c0.5,0,1-0.2,1.5-0.5c0.5-0.3,0.9-0.7,1.2-1.2L80.4,103.5
	c-1.2,0.6-2.4,1.1-4.9,1.5C77.4,104.5,79.2,104,80.4,103.5z"/>
<path class="st0" d="M22,104.2c-3.3-0.7-6.6-1.6-9.9-2.8c0,0,0,0,0,0c0,0,0,0.1,0,0.1c0,0.3,0.6,0.7,1.3,1.2
	c0.9,0.6,2.2,1.3,3.2,1.8c4.8,1.8,10.2,2.6,14.4,3.5c-4.7,0-11.3-1.1-17.6-3.7c-2.4-1-4.8-2.2-6.8-3.9v24.1c0,0.8,0.3,1.5,0.9,2.1
	c0.6,0.6,1.3,0.9,2.2,0.9h19.7c0.9,0,1.6-0.3,2.2-0.9c0.6-0.6,0.9-1.3,0.9-2.1V106c-0.2,0-0.5-0.1-0.7-0.1
	C28.5,105.5,25.2,104.9,22,104.2z"/>
<path class="st0" d="M14.5,83.1c2.7-1.5,5.8-2.7,9.7-3.8c1,0.3,2.9-0.3,5.1-0.9c2.2-0.6,4.8-1.2,6.9-1.2c3.6-1.4,8.3-2.2,13.3-2.7
	L35.3,51.8c-0.2-0.4-0.6-0.7-1.1-1c-0.6-0.3-1-0.4-1.4-0.4H9.7c-0.9,0-1.6,0.3-2.2,0.9c-0.6,0.6-0.9,1.3-0.9,2.1v36.7
	c0.4-0.6,0.8-1.2,1.3-1.7C9.6,86.3,11.8,84.6,14.5,83.1z"/>
<path class="st0" d="M71.9,76L61.2,93.6L51.1,77.3c-0.8,0.1-1.7,0.2-2.5,0.3c-5.1,0.6-10.2,1.5-15.2,2.7c-5,1.2-9.9,2.6-14.3,4.5
	c0.5,0,0.3,0.4,1.5,0c-2,0.9-4.1,1.9-5.9,3.1c-1.8,1.1-3.5,2.4-4.6,3.7c-0.5,0.6-0.9,1.2-1.1,1.7c-0.1,0.2-0.1,0.5-0.1,0.6l0,0
	c0,0,0,0,0,0c0,0,0,0,0,0c0,0,0,0,0,0l0,0.1l0,0.2l0,0.1v0l0,0c0,0,0,0,0,0c0,0,0,0,0,0l0,0c0,0,0,0.1,0-0.2l0,0l0,0
	c0,0,0,0.1,0,0.1c0,0.1,0.1,0.3,0.5,0.8c0.4,0.4,1,1,1.7,1.5c1.5,1,3.4,2,5.4,2.7c2,0.8,4.2,1.3,6.3,1.8c3.2,0.7,6.4,1.1,9.6,1.3
	V86.2l8.8,16.5c0.3,0,0.6-0.1,0.9-0.1c1.4-0.3,2.7-0.6,5.4-0.8c-0.7,0.3-3.8,0.5-2.4,1c1,0,3.8-0.1,6.7-0.4c3-0.2,6.4-0.6,8.5-0.5
	c3.3-1.1,0.6-1.2,5.2-2.3l2.6,0.7c4.3-1.1,6.9-1.3,11.3-3.1l-3.5,0.3c3.1-0.5,6-1.4,8.8-2.2l4.9-9.1v7.6c1.9-0.6,3.7-1.1,5.5-1.4
	l0.1-0.5c3.5-1,7.3-2.3,10.8-3.7c3-1.3,6.2-2.6,9.4-3.9v-1l-4.3-1l2.7-0.7c0.5,0.2,1.1,0.5,1.6,0.7v-29c0-0.8-0.3-1.5-0.9-2.1
	c-0.6-0.6-1.3-0.9-2.2-0.9H89.3c-0.5,0-1,0.1-1.5,0.4c-0.5,0.3-0.9,0.6-1.2,1L72.2,75.4c1.5,0.2,2.9,0.4,4.2,0.5
	C75,76,73.4,76,71.9,76z M104.1,80.1c-1.6,0.4,3.6,3-5.1,1.3c2,0.2,8.2,1,3.1-1l-4.9-0.5L104.1,80.1z M90.9,78.1
	c1.7,0.7-1.1,0.5-1.5,0.8C87.7,78.2,86.7,77,90.9,78.1z"/>
<path class="st0" d="M143.8,82.6c-1.8,1.5-1.1,2.4-4.3,4.1c-1.1-0.1-0.9-1-5.3,1.2c-0.1,0.5,1.5-0.1,2.9-0.4
	c-4.3,2-9.2,4.3-14.1,6.6c-1,0.5-2,0.9-3,1.4v29c0,0.8,0.3,1.5,0.9,2.1c0.6,0.6,1.3,0.9,2.1,0.9H183c0.9,0,1.6-0.3,2.1-0.9
	c0.6-0.6,0.8-1.3,0.8-2.1v-14.4c0-0.9-0.3-1.6-0.8-2.2c-0.6-0.6-1.3-0.9-2.1-0.9h-35.8v-8.3l28.3-0.1c0.8,0,1.5-0.3,2.1-0.9
	c0.6-0.6,0.9-1.3,0.9-2.2V81.5c0-0.8-0.3-1.5-0.9-2.1c-0.6-0.6-1.3-0.9-2.1-0.9H158l0.6,0.8C152.1,80.1,151.2,80.9,143.8,82.6z"/>
<path class="st0" d="M147.2,72.8v-2.1h6.5c1.3-0.4,2.7-0.8,4-1.2c5.9-1.8,11.3-3.3,15-4.8c-1,0.6-5,1.5-3.8,1.8
	c5.5-1,7.8-1.9,9.8-2.6c1.3-0.5,2.5-1,4.5-1.4v-9.2c0-0.8-0.3-1.5-0.9-2.1s-1.3-0.9-2.1-0.9h-57.5c-0.8,0-1.5,0.3-2.1,0.9
	c-0.6,0.6-0.9,1.3-0.9,2.1v29.3c7.3-2.9,14.3-5.4,20.2-7.2C142.4,74.5,144.8,73.6,147.2,72.8z"/>
<path class="st0" d="M201.2,60.1c0-0.9-5.4,0.3-0.5-1c2.6,1,8.8,1.3,15,1.9c3.4,0.3,6.8,0.7,9.6,1.1c-2.5-3.4-5.1-6.9-7.8-10.6
	c-0.1-0.3-0.5-0.6-1-0.9c-0.6-0.3-1-0.4-1.4-0.4h-21.9c-0.8,0-1.5,0.3-2.1,0.9c-0.6,0.6-0.9,1.3-0.9,2.1v8c0.5,0,1,0.1,1.5,0.1
	C193.8,61.4,196.4,61.1,201.2,60.1z"/>
<path class="st0" d="M249.8,72.5c-1.7-0.2-3.2-0.3-4.3-0.3v17.3c-1.9-2.6-3.8-5.2-5.6-7.7c-1.8-2.5-3.7-5-5.6-7.5
	c-0.9-1.3-1.9-2.5-2.8-3.8c-1.7-0.1-3.5-0.2-5.4-0.3c-0.3,0.4,0.9-1-2.4-1.3c-2.5,0.3-5,0.7-7.5,1.1l-0.6-0.4
	c-1.6,0.7-4.9,0.8-8.3,1c-3.4,0.2-6.8,0.5-8.6,1.3l0.4-1c-2.7,0.6-5.7,1.1-8.8,1.6v52c0,0.8,0.3,1.5,0.9,2.1
	c0.6,0.6,1.3,0.9,2.1,0.9h19.2c0.9,0,1.6-0.3,2.2-0.9c0.6-0.6,0.9-1.3,0.9-2.1V88.9l27.8,37.5c0.3,0.3,0.7,0.6,1.2,0.8
	c0.5,0.2,1,0.3,1.3,0.3h22.1c0.9,0,1.6-0.3,2.2-0.9c0.6-0.6,0.9-1.3,0.9-2.1V78.2c-3.9-1.4-7.8-2.7-11.7-3.9
	C256.2,73.6,252.7,72.8,249.8,72.5z"/>
<path class="st0" d="M270.9,71.4V53.2c0-0.8-0.3-1.5-0.9-2.1c-0.6-0.6-1.3-0.9-2.2-0.9h-19.2c-0.9,0-1.6,0.3-2.2,0.9
	c-0.6,0.6-0.9,1.3-0.9,2.1v11.9c4.3,0.3,9.5,1.8,14.4,3.3C264.2,69.8,268,71.1,270.9,71.4z"/>
<path class="st0" d="M279.7,74.1l-0.4,0.6c6.7,2.5,7.4,1.8,8.3,1.2c0.9-0.6,2.1-1.1,9.5,2.1c-0.8,0.2-1.6,0.3-3.6-0.2
	c0.8,1,4.6,2.4,8.1,3.6V53.1c0-0.8-0.3-1.5-0.9-2.1c-0.6-0.6-1.3-0.9-2.2-0.9h-20.2c-0.9,0-1.6,0.3-2.2,0.9
	c-0.6,0.6-0.9,1.3-0.9,2.1v19.9l0.8,0.5L279.7,74.1z"/>
<path class="st0" d="M330.9,98.5c5.1,1.1,2.7,1.6,9,3.4l-1.5-1.8c3.5,2.4,4.6,4.2,8.9,6.4c3.5,1.4,5.2,1.9,7.3,2.6
	c0.4-1.8,0.5-3.8,0.5-5.9V53.1c0-0.8-0.3-1.5-0.9-2.1c-0.6-0.6-1.3-0.9-2.1-0.9h-20.3c-0.9,0-1.6,0.3-2.2,0.9
	c-0.6,0.6-0.9,1.3-0.9,2.1v40.3c0,0.9-0.1,1.8-0.1,2.6c1.1,0.6,2.3,1,3.1,0.9L330.9,98.5z"/>
<path class="st0" d="M344.9,107.3c-5.7-2-11.5-4.3-17.4-6.6c-0.5,1-1.1,1.9-1.8,2.6c-2.1,2-5.5,3-10.3,3c-5,0-8.6-1-10.7-2.9
	c-2.1-1.9-3.2-5.1-3.2-9.7v-3.6c-8.7-3.6-17.5-7.2-26.3-10.4v22.4c0,10.2,3.5,17.2,10.5,21.2c6.4,3.5,16.1,5.3,29.3,5.3
	c12.7,0,22.5-1.8,29.2-5.3c5.4-2.9,8.9-7.4,10.2-13.5C350.9,109.1,347.5,108.3,344.9,107.3z"/>
<g>
	<path class="st0" d="M154.8,145.6c0.1,0,0.3,0,0.4,0.1c0.1,0.1,0.1,0.2,0.1,0.4v3.1c0,0.2,0,0.3-0.1,0.4c-0.1,0.1-0.2,0.1-0.4,0.1
		h-2.6c-0.1,0-0.3,0-0.4-0.1c-0.1-0.1-0.1-0.2-0.1-0.4v-3.1c0-0.2,0-0.3,0.1-0.4c0.1-0.1,0.2-0.1,0.4-0.1H154.8z"/>
	<path class="st0" d="M160.1,145.6c0.1,0,0.3,0,0.4,0.1c0.1,0.1,0.1,0.2,0.1,0.4v3.1c0,0.2,0,0.3-0.1,0.4c-0.1,0.1-0.2,0.1-0.4,0.1
		h-2.6c-0.1,0-0.3,0-0.4-0.1c-0.1-0.1-0.1-0.2-0.1-0.4v-3.1c0-0.2,0-0.3,0.1-0.4c0.1-0.1,0.2-0.1,0.4-0.1H160.1z"/>
	<path class="st0" d="M165.4,145.6c0.1,0,0.3,0,0.4,0.1c0.1,0.1,0.1,0.2,0.1,0.4v3.1c0,0.2,0,0.3-0.1,0.4c-0.1,0.1-0.2,0.1-0.4,0.1
		h-2.6c-0.1,0-0.3,0-0.4-0.1c-0.1-0.1-0.1-0.2-0.1-0.4v-3.1c0-0.2,0-0.3,0.1-0.4c0.1-0.1,0.2-0.1,0.4-0.1H165.4z"/>
	<path class="st0" d="M168.1,149.8c-0.2,0-0.3-0.1-0.4-0.2c-0.1-0.1-0.2-0.3-0.2-0.5v-10.8c0-0.2,0.1-0.3,0.2-0.4
		c0.1-0.1,0.3-0.2,0.4-0.2h2.5c0.1,0,0.2,0,0.3,0.1c0.1,0.1,0.2,0.2,0.2,0.3l0.4,1.4c0.5-0.7,1-1.2,1.5-1.6c0.5-0.4,1.1-0.6,1.6-0.6
		c0.3,0,0.5,0.1,0.7,0.2c0.2,0.1,0.4,0.2,0.6,0.4s0.3,0.3,0.4,0.5c0.1,0.2,0.2,0.3,0.3,0.4l-0.9,3.4c-0.1,0.3-0.2,0.4-0.5,0.5
		c-0.2,0.1-0.4,0-0.6-0.3c-0.4-0.5-0.7-0.7-1-0.7c-0.3,0-0.5,0.2-0.8,0.5c-0.3,0.3-0.6,0.6-0.7,0.8v6.1c0,0.2-0.1,0.3-0.2,0.5
		c-0.1,0.1-0.3,0.2-0.4,0.2H168.1z"/>
	<path class="st0" d="M187.2,149c-0.3,0.2-0.5,0.3-0.9,0.4c-0.3,0.1-0.7,0.2-1.1,0.3c-0.4,0.1-0.8,0.2-1.2,0.2
		c-0.4,0-0.8,0.1-1.2,0.1c-2.1,0-3.7-0.6-4.9-1.7c-1.2-1.1-1.8-2.7-1.8-4.8c0-1.8,0.6-3.2,1.7-4.4c1.1-1.2,2.5-1.7,4.2-1.7
		s3.1,0.6,4.1,1.8c1,1.1,1.5,2.6,1.5,4.5v0.9c0,0.2-0.1,0.3-0.2,0.4c-0.1,0.1-0.3,0.2-0.4,0.2h-6c0.1,0.2,0.2,0.4,0.4,0.5
		c0.4,0.4,1.1,0.6,2.2,0.6c0.5,0,1-0.1,1.4-0.2c0.3-0.1,0.4-0.1,0.6-0.2c0.1,0,0.2-0.1,0.3-0.1c0.2-0.1,0.3-0.1,0.5,0
		c0.2,0.1,0.3,0.2,0.3,0.3l0.8,2L187.2,149z M180.8,142.4h2.2c-0.1-0.5-0.2-0.9-0.4-1.1c-0.2-0.3-0.4-0.4-0.7-0.4
		c-0.4,0-0.7,0.2-0.8,0.6C180.9,141.7,180.8,142,180.8,142.4z"/>
	<path class="st0" d="M196.7,149.1c-0.1-0.1-0.2-0.1-0.2-0.2c-0.6,0.3-1.3,0.6-2,0.8c-0.7,0.2-1.4,0.3-2.2,0.3c-1.5,0-2.6-0.3-3.3-1
		c-0.8-0.7-1.1-1.6-1.1-2.8c0-1.2,0.6-2.3,1.7-3.1c0.6-0.4,1.2-0.7,1.9-0.9c0.7-0.2,1.5-0.3,2.4-0.2l1.8,0.1c0-0.4-0.2-0.8-0.4-1
		c-0.3-0.2-0.7-0.3-1.2-0.3c-0.4,0-0.7,0-1,0.1c-0.3,0.1-0.7,0.2-1,0.3c-0.3,0.1-0.6,0.2-0.9,0.4c-0.3,0.1-0.5,0.2-0.8,0.3
		c-0.2,0.1-0.3,0.1-0.5,0c-0.2-0.1-0.3-0.2-0.4-0.3l-0.8-1.8c0-0.1,0-0.2,0-0.4c0-0.1,0.1-0.2,0.2-0.3c0.2-0.1,0.4-0.3,0.7-0.5
		c0.3-0.2,0.8-0.4,1.3-0.6c0.5-0.2,1.1-0.3,1.7-0.5c0.6-0.1,1.2-0.2,1.8-0.2c1,0,1.9,0.1,2.7,0.3c0.8,0.2,1.4,0.5,1.9,0.9
		c0.5,0.4,0.9,0.9,1.1,1.6c0.2,0.7,0.4,1.4,0.4,2.4v4.3l0.1,0.1l0.1,0.1c0.2,0,0.3,0,0.4,0.1c0.1,0.1,0.2,0.2,0.2,0.3
		c0,0.1,0,0.2,0,0.4c0,0.1-0.1,0.2-0.2,0.3l-2.2,1.8c-0.7,0-1.3-0.2-1.8-0.6C196.9,149.3,196.8,149.2,196.7,149.1z M195.5,146.3
		c0.1,0,0.2-0.1,0.3-0.1v-1h-0.1c-2.1,0-3.2,0.3-3.2,1c0,0.3,0.4,0.5,1.1,0.5c0.5,0,1-0.1,1.5-0.3
		C195.2,146.4,195.3,146.4,195.5,146.3z"/>
	<path class="st0" d="M206,133.3c0.1,0,0.3,0.1,0.4,0.2c0.1,0.1,0.1,0.3,0.1,0.4v15.2c0,0.2,0,0.3-0.1,0.4c-0.1,0.1-0.2,0.2-0.4,0.2
		h-3.4c-0.2,0-0.3-0.1-0.4-0.2c-0.1-0.1-0.1-0.3-0.1-0.4v-15.2c0-0.2,0-0.3,0.1-0.4c0.1-0.1,0.2-0.2,0.4-0.2H206z"/>
	<path class="st0" d="M216.2,149.8c-0.2,0-0.3-0.1-0.4-0.2c-0.1-0.1-0.2-0.3-0.2-0.4v-8h-1.7c-0.2,0-0.3-0.1-0.4-0.2
		c-0.1-0.1-0.2-0.3-0.2-0.5v-2c0-0.2,0.1-0.3,0.2-0.4c0.1-0.1,0.3-0.2,0.4-0.2h1.7V137c0-1.2,0.4-2.1,1.2-2.8
		c0.8-0.6,1.8-0.9,3.1-0.9c0.6,0,1,0,1.4,0.1c0.4,0.1,0.8,0.2,1,0.3c0.1,0,0.2,0.1,0.3,0.2c0.1,0.1,0.1,0.2,0.1,0.4v2.3
		c0,0.2-0.1,0.3-0.2,0.5c-0.1,0.1-0.3,0.2-0.4,0.2c0,0,0,0-0.1,0c0,0-0.1,0-0.1,0c-0.1,0-0.3-0.1-0.5-0.1c-0.2-0.1-0.5-0.1-0.8-0.1
		c-0.3,0-0.4,0.2-0.4,0.5v0.5h2.1c0.2,0,0.3,0.1,0.4,0.2c0.1,0.1,0.2,0.3,0.2,0.4v2c0,0.2-0.1,0.3-0.2,0.5c-0.1,0.1-0.3,0.2-0.4,0.2
		h-2.1v8c0,0.2-0.1,0.3-0.2,0.4c-0.1,0.1-0.3,0.2-0.4,0.2H216.2z"/>
	<path class="st0" d="M235.4,148.3c-1.2,1.1-2.8,1.7-4.9,1.7c-2,0-3.6-0.6-4.8-1.7c-1.2-1.1-1.8-2.7-1.8-4.6c0-2,0.6-3.5,1.8-4.6
		c1.2-1.1,2.8-1.7,4.8-1.7c2,0,3.6,0.6,4.9,1.7c1.2,1.1,1.8,2.7,1.8,4.6C237.2,145.7,236.6,147.2,235.4,148.3z M232.2,141.9
		c-0.4-0.4-0.9-0.7-1.7-0.7c-0.7,0-1.2,0.2-1.6,0.7c-0.4,0.4-0.6,1.1-0.6,1.8s0.2,1.4,0.6,1.8c0.4,0.4,0.9,0.7,1.6,0.7
		c0.7,0,1.3-0.2,1.7-0.7c0.4-0.4,0.6-1.1,0.6-1.8S232.6,142.3,232.2,141.9z"/>
	<path class="st0" d="M249.7,148.3c-1.2,1.1-2.8,1.7-4.9,1.7c-2,0-3.6-0.6-4.8-1.7c-1.2-1.1-1.8-2.7-1.8-4.6c0-2,0.6-3.5,1.8-4.6
		c1.2-1.1,2.8-1.7,4.8-1.7c2,0,3.6,0.6,4.9,1.7c1.2,1.1,1.8,2.7,1.8,4.6C251.5,145.7,250.9,147.2,249.7,148.3z M246.5,141.9
		c-0.4-0.4-0.9-0.7-1.7-0.7c-0.7,0-1.2,0.2-1.6,0.7c-0.4,0.4-0.6,1.1-0.6,1.8s0.2,1.4,0.6,1.8c0.4,0.4,0.9,0.7,1.6,0.7
		c0.7,0,1.3-0.2,1.7-0.7c0.4-0.4,0.6-1.1,0.6-1.8S246.9,142.3,246.5,141.9z"/>
	<path class="st0" d="M262.2,148.3c-0.2,0.2-0.4,0.3-0.6,0.5c-0.2,0.1-0.4,0.3-0.6,0.5c-0.8,0.5-1.7,0.8-3,0.8
		c-1.7,0-3.1-0.6-4.1-1.8c-1-1.2-1.5-2.7-1.5-4.7c0-1.9,0.5-3.5,1.4-4.7c1-1.2,2.4-1.8,4.1-1.8c0.8,0,1.5,0.2,2.2,0.5
		c0.1,0.1,0.3,0.1,0.4,0.2c0.1,0,0.3,0.1,0.4,0.2v-4c0-0.2,0.1-0.3,0.2-0.4c0.1-0.1,0.3-0.2,0.5-0.2h3.6c0.2,0,0.3,0.1,0.4,0.2
		c0.1,0.1,0.2,0.3,0.2,0.4v15.2c0,0.2-0.1,0.3-0.2,0.4c-0.1,0.1-0.3,0.2-0.4,0.2h-1.9c-0.1,0-0.2,0-0.3-0.1
		c-0.1-0.1-0.2-0.1-0.2-0.2L262.2,148.3z M260.8,145.8c0.1-0.1,0.2-0.1,0.3-0.2v-4.3c-0.1,0-0.2-0.1-0.2-0.1c-0.1,0-0.2-0.1-0.3-0.2
		c-0.3-0.2-0.7-0.3-1.1-0.3c-0.8,0-1.3,0.3-1.7,0.8c-0.4,0.6-0.6,1.3-0.6,2.3c0,0.8,0.2,1.5,0.5,2c0.3,0.5,0.8,0.7,1.5,0.7
		c0.4,0,0.8-0.1,1.3-0.4C260.5,145.9,260.7,145.9,260.8,145.8z"/>
	<path class="st0" d="M278.2,149.8c-0.2,0-0.3-0.1-0.4-0.2c-0.1-0.1-0.2-0.3-0.2-0.4v-11.7h-4.3c-0.2,0-0.3-0.1-0.5-0.2
		c-0.1-0.1-0.2-0.3-0.2-0.5v-2.9c0-0.2,0.1-0.3,0.2-0.4c0.1-0.1,0.3-0.2,0.5-0.2h14.5c0.2,0,0.3,0.1,0.5,0.2
		c0.1,0.1,0.2,0.3,0.2,0.4v2.9c0,0.2-0.1,0.3-0.2,0.5c-0.1,0.1-0.3,0.2-0.5,0.2h-4.3v11.7c0,0.2-0.1,0.3-0.2,0.4
		c-0.1,0.1-0.3,0.2-0.5,0.2H278.2z"/>
	<path class="st0" d="M306.4,147.9c-1.7,1.4-4.1,2.1-7.4,2.1c-3.2,0-5.7-0.7-7.4-2.1c-1.7-1.4-2.5-3.5-2.5-6.4c0-2.9,0.8-5,2.5-6.4
		c1.7-1.4,4.1-2.1,7.4-2.1c3.2,0,5.7,0.7,7.4,2.1c1.7,1.4,2.5,3.5,2.5,6.4C308.9,144.4,308,146.5,306.4,147.9z M302,138.8
		c-0.7-0.6-1.7-0.9-3-0.9c-1.3,0-2.3,0.3-3,0.9c-0.7,0.6-1,1.5-1,2.7c0,1.2,0.3,2.1,1,2.7c0.7,0.6,1.7,0.9,3,0.9
		c1.3,0,2.3-0.3,3-0.9c0.7-0.6,1-1.5,1-2.7C303.1,140.3,302.7,139.4,302,138.8z"/>
	<path class="st0" d="M322.5,144.7c0.9,0.8,2.1,1.1,3.7,1.1c1.3,0,2.2-0.1,2.9-0.4v-1h-2.2c-0.2,0-0.3-0.1-0.5-0.2
		c-0.1-0.1-0.2-0.3-0.2-0.5V141c0-0.2,0.1-0.3,0.2-0.5c0.1-0.1,0.3-0.2,0.5-0.2h6.7c0.2,0,0.3,0.1,0.5,0.2c0.1,0.1,0.2,0.3,0.2,0.5
		v7.4c0,0.1,0,0.2-0.1,0.4c-0.1,0.1-0.2,0.2-0.3,0.2c-1,0.3-2.2,0.6-3.5,0.8c-1.3,0.2-2.7,0.3-4.2,0.3c-3.5,0-6.1-0.7-7.9-2
		c-1.8-1.3-2.7-3.4-2.7-6.2c0-2.7,0.9-4.9,2.8-6.5c1.9-1.6,4.4-2.3,7.4-2.3c1.5,0,2.8,0.1,4,0.3c1.2,0.2,2.1,0.4,2.9,0.6
		c0.1,0,0.2,0.1,0.3,0.2c0.1,0.1,0.1,0.2,0.2,0.3l0.4,2.9c0,0.2,0,0.4-0.2,0.6c-0.2,0.1-0.4,0.2-0.6,0.1c-0.8-0.2-1.7-0.4-2.7-0.7
		c-0.5-0.1-1-0.2-1.6-0.2c-0.5-0.1-1.1-0.1-1.6-0.1c-1.7,0-3,0.4-4,1.3c-1,0.8-1.4,1.9-1.4,3.3C321.2,142.9,321.6,143.9,322.5,144.7
		z"/>
	<path class="st0" d="M352.4,147.9c-1.7,1.4-4.1,2.1-7.4,2.1c-3.2,0-5.7-0.7-7.4-2.1c-1.7-1.4-2.5-3.5-2.5-6.4c0-2.9,0.8-5,2.5-6.4
		c1.7-1.4,4.1-2.1,7.4-2.1c3.2,0,5.7,0.7,7.4,2.1c1.7,1.4,2.5,3.5,2.5,6.4C354.9,144.4,354.1,146.5,352.4,147.9z M348,138.8
		c-0.7-0.6-1.7-0.9-3-0.9c-1.3,0-2.3,0.3-3,0.9c-0.7,0.6-1,1.5-1,2.7c0,1.2,0.3,2.1,1,2.7c0.7,0.6,1.7,0.9,3,0.9
		c1.3,0,2.3-0.3,3-0.9c0.7-0.6,1-1.5,1-2.7C349.1,140.3,348.7,139.4,348,138.8z"/>
</g>
<g>
	<path class="st0" d="M40.6,44.8c-0.2,0-0.4-0.1-0.7-0.2c-0.2-0.1-0.4-0.3-0.5-0.5l-2.2-4.3H20.7l-2.2,4.3c-0.1,0.2-0.3,0.4-0.5,0.5
		c-0.2,0.1-0.5,0.2-0.7,0.2H8.1c-0.6,0-1-0.2-1.3-0.6c-0.3-0.4-0.2-0.9,0-1.4L25,11c0.1-0.2,0.3-0.3,0.5-0.5
		c0.3-0.1,0.5-0.2,0.7-0.2h7.8c0.2,0,0.4,0.1,0.7,0.2c0.2,0.1,0.4,0.3,0.5,0.5l17,31.8c0.2,0.5,0.2,0.9,0,1.3
		c-0.2,0.4-0.6,0.6-1.2,0.6H40.6z M25,32h8.2l-4-7.7L25,32z"/>
	<path class="st0" d="M75,10.3c5.3,0,9.5,1.6,12.8,4.8c3.3,3.2,4.9,7.3,4.9,12.5c0,5-1.6,9.2-4.9,12.4c-3.3,3.2-7.5,4.8-12.6,4.8
		H55.8c-0.4,0-0.7-0.1-1-0.4c-0.3-0.3-0.4-0.6-0.4-0.9V11.6c0-0.4,0.1-0.7,0.4-0.9c0.3-0.3,0.6-0.4,1-0.4H75z M79.1,22.5
		c-1-1.1-2.5-1.7-4.5-1.7h-7.7v13.6h7.4c2.1,0,3.7-0.6,4.8-1.7c1.1-1.1,1.6-2.8,1.6-5C80.7,25.3,80.2,23.6,79.1,22.5z"/>
	<path class="st0" d="M131.7,10.3c0.6,0,1,0.2,1.2,0.6c0.2,0.4,0.3,0.8,0,1.3l-16,32.4c-0.1,0.2-0.3,0.4-0.5,0.5
		c-0.2,0.1-0.5,0.2-0.7,0.2H110c-0.2,0-0.4-0.1-0.7-0.2c-0.3-0.2-0.4-0.3-0.5-0.6L92.8,12.2c-0.2-0.5-0.2-0.9,0-1.3
		c0.3-0.4,0.7-0.6,1.2-0.6h10c0.2,0,0.5,0.1,0.7,0.2c0.2,0.1,0.4,0.3,0.5,0.6l8,17.1l7.7-17.1c0.1-0.2,0.3-0.4,0.5-0.5
		c0.2-0.2,0.5-0.2,0.7-0.2H131.7z"/>
	<path class="st0" d="M137.1,44.8c-0.4,0-0.7-0.1-0.9-0.4c-0.3-0.3-0.4-0.6-0.4-0.9V11.6c0-0.4,0.1-0.7,0.4-0.9
		c0.3-0.3,0.6-0.4,0.9-0.4h25.7c0.4,0,0.7,0.1,0.9,0.4c0.3,0.3,0.4,0.6,0.4,0.9v6.4c0,0.4-0.1,0.7-0.4,1c-0.3,0.3-0.6,0.4-0.9,0.4
		H148v3.5h12.6c0.4,0,0.7,0.1,0.9,0.4c0.3,0.3,0.4,0.6,0.4,0.9v6.3c0,0.4-0.1,0.7-0.4,1c-0.3,0.3-0.6,0.4-0.9,0.4L148,32v3.7h16
		c0.4,0,0.7,0.1,0.9,0.4c0.2,0.3,0.4,0.6,0.4,1v6.4c0,0.4-0.1,0.7-0.4,0.9c-0.3,0.3-0.6,0.4-0.9,0.4H137.1z"/>
	<path class="st0" d="M191,24.4c0.8,1.1,1.7,2.3,2.5,3.5V11.6c0-0.4,0.1-0.7,0.4-0.9c0.3-0.3,0.6-0.4,1-0.4h8.6c0.4,0,0.7,0.1,1,0.4
		c0.3,0.3,0.4,0.6,0.4,0.9v31.9c0,0.4-0.1,0.7-0.4,0.9c-0.3,0.3-0.6,0.4-1,0.4h-9.9c-0.1,0-0.3-0.1-0.6-0.2
		c-0.2-0.1-0.4-0.2-0.5-0.4l-12.4-16.7v15.9c0,0.4-0.1,0.7-0.4,0.9c-0.3,0.3-0.6,0.4-1,0.4h-8.6c-0.4,0-0.7-0.1-0.9-0.4
		c-0.3-0.3-0.4-0.6-0.4-0.9V11.6c0-0.4,0.1-0.7,0.4-0.9c0.3-0.3,0.6-0.4,0.9-0.4h9.8c0.2,0,0.4,0.1,0.6,0.2c0.2,0.1,0.4,0.2,0.5,0.4
		c1.3,1.8,2.5,3.5,3.8,5.1c1.2,1.7,2.5,3.3,3.7,5C189.4,22.1,190.2,23.2,191,24.4z"/>
	<path class="st0" d="M219.4,44.8c-0.4,0-0.7-0.1-0.9-0.4c-0.3-0.3-0.4-0.6-0.4-0.9V19H209c-0.4,0-0.7-0.1-0.9-0.4
		c-0.3-0.3-0.4-0.6-0.4-1v-6c0-0.4,0.1-0.7,0.4-0.9c0.2-0.3,0.6-0.4,0.9-0.4h30.4c0.4,0,0.7,0.1,1,0.4c0.3,0.3,0.4,0.6,0.4,0.9v6
		c0,0.4-0.1,0.7-0.4,1c-0.3,0.3-0.6,0.4-1,0.4h-9.1v24.5c0,0.4-0.1,0.7-0.4,0.9c-0.3,0.3-0.6,0.4-0.9,0.4H219.4z"/>
	<path class="st0" d="M267.3,11.6c0-0.4,0.1-0.7,0.4-0.9c0.3-0.3,0.6-0.4,1-0.4h9.1c0.4,0,0.7,0.1,0.9,0.4s0.4,0.6,0.4,0.9v22.4
		c0,4.3-1.6,7.3-4.9,9c-3,1.6-7.3,2.4-13,2.4c-5.9,0-10.2-0.8-13.1-2.4c-3.1-1.8-4.7-4.9-4.7-9.5V11.6c0-0.4,0.1-0.7,0.4-0.9
		c0.3-0.3,0.6-0.4,1-0.4h9c0.4,0,0.7,0.1,1,0.4c0.3,0.3,0.4,0.6,0.4,0.9v18.1c0,2,0.5,3.5,1.4,4.3c1,0.9,2.5,1.3,4.8,1.3
		c2.1,0,3.6-0.4,4.6-1.3c0.9-0.9,1.4-2.4,1.4-4.4V11.6z"/>
	<path class="st0" d="M295.6,32.6v10.9c0,0.4-0.1,0.7-0.4,0.9c-0.3,0.3-0.6,0.4-1,0.4h-9.8c-0.4,0-0.7-0.1-0.9-0.4
		c-0.3-0.3-0.4-0.6-0.4-0.9V11.6c0-0.4,0.1-0.7,0.4-0.9c0.3-0.3,0.6-0.4,0.9-0.4h22.1c3.8,0,6.8,0.8,9.1,2.5
		c2.5,1.8,3.7,4.2,3.7,7.2c0,3.3-1,5.8-3,7.3c-0.5,0.4-1.1,0.7-1.7,1.1c-0.7,0.3-1.4,0.6-2.2,0.9c0.9,0.5,1.7,1,2.4,1.6
		c0.7,0.6,1.2,1.2,1.7,1.8l6,10.2c0.3,0.5,0.3,1,0.1,1.4c-0.3,0.4-0.7,0.6-1.2,0.6h-11.2c-0.2,0-0.5-0.1-0.7-0.2
		c-0.2-0.1-0.4-0.3-0.5-0.5l-5.6-10.5l0,0.1c-0.1-0.1-0.2-0.3-0.4-0.4c-0.1-0.1-0.3-0.3-0.4-0.4c-0.2-0.2-1.1-0.3-2.7-0.3H295.6z
		 M295.4,18.2v6.6h5.3c2.1,0,3.8-0.2,4.9-0.7c1.1-0.5,1.7-1.4,1.7-2.7c0-1.1-0.4-1.9-1.3-2.4c-0.8-0.5-2.1-0.7-3.7-0.7H295.4z"/>
	<path class="st0" d="M326.7,44.8c-0.4,0-0.7-0.1-0.9-0.4c-0.3-0.3-0.4-0.6-0.4-0.9V11.6c0-0.4,0.1-0.7,0.4-0.9
		c0.3-0.3,0.6-0.4,0.9-0.4h25.7c0.4,0,0.7,0.1,0.9,0.4c0.3,0.3,0.4,0.6,0.4,0.9v6.4c0,0.4-0.1,0.7-0.4,1c-0.3,0.3-0.6,0.4-0.9,0.4
		h-14.8v3.5h12.6c0.4,0,0.7,0.1,0.9,0.4c0.3,0.3,0.4,0.6,0.4,0.9v6.3c0,0.4-0.1,0.7-0.4,1c-0.3,0.3-0.6,0.4-0.9,0.4l-12.6,0v3.7h16
		c0.4,0,0.7,0.1,0.9,0.4c0.3,0.3,0.4,0.6,0.4,1v6.4c0,0.4-0.1,0.7-0.4,0.9c-0.3,0.3-0.6,0.4-0.9,0.4H326.7z"/>
</g>
<g>
	<path class="st0" d="M354,128.3v-6.1h2.7c0.5,0,1,0.1,1.2,0.2c0.3,0.1,0.5,0.3,0.7,0.6c0.2,0.3,0.3,0.6,0.3,0.9
		c0,0.4-0.1,0.8-0.4,1.1c-0.3,0.3-0.7,0.5-1.3,0.6c0.2,0.1,0.4,0.2,0.5,0.3c0.2,0.2,0.5,0.5,0.7,0.8l1.1,1.7h-1l-0.8-1.3
		c-0.2-0.4-0.4-0.6-0.6-0.8c-0.2-0.2-0.3-0.3-0.4-0.4c-0.1-0.1-0.2-0.1-0.4-0.2c-0.1,0-0.2,0-0.5,0h-0.9v2.7H354z M354.8,124.9h1.7
		c0.4,0,0.7,0,0.9-0.1c0.2-0.1,0.4-0.2,0.5-0.4c0.1-0.2,0.2-0.4,0.2-0.5c0-0.3-0.1-0.5-0.3-0.7s-0.5-0.3-1-0.3h-1.9V124.9z"/>
</g>
<circle class="st1" cx="356.1" cy="125.5" r="6.5"/>
</svg>
