<?xml version="1.0" encoding="utf-8"?>
<svg version="1.1" id="Layer_1" xmlns="http://www.w3.org/2000/svg" x="0px" y="0px"
	 viewBox="0 0 158 48" style="enable-background:new 0 0 158 48;" xml:space="preserve">
<style type="text/css">
	.st0{fill:#64748B;}
</style>
<g>
	<path class="st0" d="M95.1,33.1c1.2-2.2,2.3-4.4,3.5-6.7c-2.2,0-4.3,0-6.6,0c0.1-0.2,0.1-0.3,0.2-0.4c0.5-0.9,1-1.9,1.5-2.8
		c0.1-0.2,0.2-0.3,0.5-0.3c2,0,3.9,0,5.9,0c0.3,0,0.4-0.1,0.5-0.3c0.4-0.9,0.9-1.7,1.3-2.6c0-0.1,0.1-0.1,0.1-0.3
		c-0.2,0-0.3,0-0.4,0c-2.3,0-4.6,0-6.9,0c-0.5,0-0.9,0.2-1.2,0.5c-0.6,0.6-1,1.4-1.4,2.2c-1.8,3.4-3.6,6.9-5.4,10.3
		c-0.1,0.2-0.2,0.3-0.5,0.3c-2,0-4.1,0-6.1,0c-0.1,0-0.2,0-0.3,0c0-0.1,0.1-0.2,0.1-0.3c2.2-4.3,4.4-8.6,6.7-12.9
		c0.8-1.6,2-2.9,3.6-3.8c0.5-0.3,1-0.4,1.5-0.4c6.2,0,12.5,0,18.7,0c0.1,0,0.3,0,0.5,0c-0.3,0.6-0.6,1.1-0.8,1.7
		c-2.7,5.1-5.3,10.2-7.9,15.3c-0.1,0.2-0.2,0.3-0.5,0.3c-2,0-4.1,0-6.1,0C95.4,33.1,95.3,33.1,95.1,33.1z"/>
	<path class="st0" d="M55.5,33.1c0.4-0.7,0.7-1.3,1-2c2.5-4.8,4.9-9.5,7.4-14.3c0.1-0.3,0.3-0.5,0.4-0.8c0.1-0.2,0.2-0.2,0.4-0.2
		c6,0,12,0,17.9,0c1.1,0,1.7,0.7,1.7,1.9c0,1-0.3,2-0.7,2.9c-0.9,1.9-2,3.5-3.7,4.7c-1,0.7-2,1.2-3.3,1.1c-0.1,0-0.3,0-0.4,0
		c0,0,0,0-0.1,0c0.6,2.2,1.2,4.4,1.8,6.6c-0.1,0-0.2,0-0.2,0c-2.1,0-4.3,0-6.4,0c-0.1,0-0.3,0-0.3-0.2c-0.7-3.3-1.5-6.5-2.2-9.8
		c0,0,0,0,0-0.1c0.1,0,0.2,0,0.3,0c1.4,0,2.9,0,4.3,0c0.6,0,1.1-0.2,1.5-0.6c0.5-0.5,0.9-1,1-1.7c0.1-0.6-0.1-0.9-0.8-0.9
		c-1.7,0-3.5,0-5.2,0c-0.7,0-1,0.2-1.3,0.8c-2.1,4.1-4.2,8.1-6.3,12.2c-0.1,0.2-0.2,0.3-0.4,0.3c-2.1,0-4.2,0-6.3,0
		C55.7,33.1,55.7,33.1,55.5,33.1z"/>
	<path class="st0" d="M111.2,19.8c0.4-0.7,0.7-1.4,1-2c0.3-0.6,0.6-1.2,0.9-1.7c0.1-0.2,0.2-0.3,0.4-0.3c5.9,0,11.8,0,17.7,0
		c0.9,0,1.3,0.5,1.4,1.3c0,0.8-0.2,1.6-0.6,2.3c-0.7,1.3-1.7,2.3-3.1,3c-3.9,2-7.8,4.1-11.7,6.2c-0.2,0.1-0.4,0.3-0.6,0.4
		c0,0,0,0.1,0.1,0.1c3.8,0,7.6,0,11.4,0c0,0,0,0.1,0,0.1c-0.2,0.2-0.5,0.4-0.7,0.6c-1.1,1-2.2,2-3.2,3c-0.1,0.1-0.3,0.2-0.4,0.2
		c-6.4,0-12.9,0-19.3,0c0,0-0.1,0-0.2,0c0-0.1,0-0.2,0.1-0.2c0.6-1.1,1.2-2.2,1.7-3.3c0.1-0.1,0.2-0.3,0.3-0.3
		c4.5-2.3,9-4.5,13.4-6.8c1-0.5,2.1-1,3.1-1.5c0.3-0.1,0.5-0.3,0.7-0.5c0.2-0.2,0.1-0.4-0.2-0.4c-0.2,0-0.4,0-0.5,0
		c-3.8,0-7.6,0-11.4,0C111.5,19.8,111.4,19.8,111.2,19.8z"/>
	<path class="st0" d="M19,24.4c0,3.4,0,6.7,0,10.1c0,0.7-0.4,0.8-0.9,0.5c-5.9-3.4-11.8-6.8-17.7-10.2c-0.5-0.3-0.5-0.6,0-1
		c5.9-3.4,11.8-6.8,17.7-10.2c0.5-0.3,0.9-0.1,0.9,0.5C19,17.6,19,21,19,24.4z"/>
	<path class="st0" d="M55.2,29.3c-0.4,0.8-0.8,1.6-1.2,2.3c-0.2,0.4-0.5,0.8-0.7,1.3c-0.1,0.2-0.2,0.3-0.5,0.3c-1.9,0-3.8,0-5.6,0
		c-2.9,0-5.8,0-8.7,0c-1.7,0-2.5-1.1-2.7-2.4c-0.2-1.5,0.1-2.9,0.6-4.3c1-2.6,2.4-4.9,4.3-6.9c1.2-1.3,2.6-2.4,4.2-3.1
		c0.8-0.4,1.7-0.6,2.6-0.6c4.7,0,9.4,0,14.2,0c0.1,0,0.2,0,0.4,0c-0.3,0.6-0.6,1.1-0.9,1.7c-0.4,0.7-0.7,1.4-1.1,2.1
		c-0.1,0.2-0.3,0.3-0.5,0.3c-3.3,0-6.6,0-9.9,0c-1.3,0-2.4,0.4-3.4,1.2c-1.8,1.5-3,3.4-3.6,5.7c-0.1,0.5-0.1,1,0,1.5
		c0.1,0.7,0.6,1.1,1.4,1.1c2.6,0,5.3,0,7.9,0C53.1,29.3,54.1,29.3,55.2,29.3z"/>
	<path class="st0" d="M37,22.5c-0.6,1.2-1.1,2.4-1.6,3.5c-0.1,0.3-0.3,0.7-0.3,1c-0.1,0.4-0.3,0.7-0.7,0.9c-4.3,2.5-8.7,5-13,7.5
		c-0.6,0.3-0.9,0.2-0.9-0.5c0-7,0-14,0-21c0-0.7,0.3-0.8,0.9-0.5c3.1,1.8,6.3,3.6,9.4,5.4c0.1,0,0.1,0.1,0.2,0.1
		c0.3,0.2,0.3,0.5,0,0.7c-0.5,0.3-1.1,0.6-1.6,0.9c-0.8,0.4-1.1,1.1-0.9,2c0.1,0.8,0.6,1.3,1.4,1.5c0.5,0.2,1,0.1,1.5-0.2
		c1.2-0.7,2.4-1.3,3.6-2c0.4-0.2,0.8-0.3,1.2,0C36.3,22.1,36.7,22.3,37,22.5z"/>
	<path class="st0" d="M158,15.8c-0.4,0.7-0.7,1.3-1,2c-1.5,2.8-2.9,5.7-4.4,8.5c-0.6,1.1-1.2,2.2-1.9,3.3c-1,1.5-2.4,2.6-4.1,3.3
		c-0.4,0.2-0.8,0.2-1.2,0.2c-5.7,0-11.4,0-17,0c-0.1,0-0.2,0-0.4,0c0.5-0.4,0.8-0.8,1.2-1.1c0.9-0.8,1.8-1.7,2.7-2.5
		c0.1-0.1,0.3-0.2,0.5-0.2c3.1,0,6.1,0,9.2,0c0.9,0,1.6-0.3,2.3-0.8c0.9-0.7,1.5-1.6,2.1-2.6c1.7-3.3,3.4-6.6,5.1-9.8
		c0.1-0.1,0.2-0.2,0.3-0.2C153.6,15.8,155.8,15.8,158,15.8z"/>
	<path class="st0" d="M143.3,15.8c-0.4,0.9-0.9,1.6-1.3,2.4c-0.5,1-0.9,2-1.4,3c0,0.1,0,0.2-0.1,0.3c-0.2,1,0.2,1.5,1.2,1.5
		c1.3,0,2.6,0,3.9,0c0.1,0,0.2,0,0.4,0c-0.3,0.6-0.6,1.1-0.8,1.6c-0.3,0.5-0.6,1.1-0.8,1.6c-0.1,0.2-0.2,0.2-0.4,0.2
		c-3.2,0-6.4,0-9.6,0c-0.4,0-0.8-0.1-1.1-0.2c-0.6-0.2-0.9-0.6-0.9-1.3c0-0.5,0.1-1.1,0.3-1.6c0.6-1.4,1.3-2.8,1.9-4.1
		c0.5-1,1.1-2,1.6-3.1c0.1-0.2,0.2-0.3,0.5-0.3c2,0,4,0,6,0C143,15.8,143.1,15.8,143.3,15.8z"/>
</g>
</svg>
