<?xml version="1.0" encoding="utf-8"?>
<svg version="1.1" id="Layer_1" xmlns="http://www.w3.org/2000/svg" x="0px" y="0px"
	 viewBox="0 0 158 48" style="enable-background:new 0 0 158 48;" xml:space="preserve">
<style type="text/css">
	.st0{fill:#64748B;}
</style>
<g>
	<path class="st0" d="M84.1,40.8c-0.1,0-0.2-0.1-0.3-0.1c-1.2-0.2-2.3-1.3-2.3-2.9c0-0.1,0-0.1,0-0.2c0-8,0-16,0-23.9
		c0-0.3,0-0.6,0.1-0.9c0.3-1.2,1.1-1.9,2.3-2.2c2.1-0.3,3.5,1.3,3.5,2.9c0,1.5,0,3,0,4.4c0,0.1,0,0.2,0,0.4c0.1,0,0.1,0,0.2,0
		c0.6-0.2,1.2-0.3,1.8-0.4c0.6-0.1,1.1-0.1,1.7-0.2c0.3,0,0.6,0,1,0c1.3,0,2.5,0.2,3.7,0.6c0.7,0.2,1.3,0.5,1.9,0.8
		c1.2,0.6,2.1,1.5,2.8,2.7c0.5,0.8,0.8,1.6,1,2.5c0.2,0.9,0.3,1.8,0.4,2.6c0.1,0.8,0.1,1.5,0.1,2.3c0,1.3-0.1,2.6-0.3,4
		c-0.1,0.8-0.3,1.6-0.6,2.4c-0.9,2-2.2,3.4-4.2,4.2c-1,0.4-2.1,0.7-3.2,0.8c-0.5,0.1-1,0.1-1.5,0.1c-0.5,0-1.1,0-1.6,0
		c-1.3-0.1-2.5-0.3-3.7-0.8c-0.1,0-0.1-0.1-0.2-0.1c-0.1,0-0.1,0.1-0.2,0.1c-0.4,0.4-0.9,0.6-1.4,0.7c-0.1,0-0.2,0.1-0.3,0.1
		C84.5,40.8,84.3,40.8,84.1,40.8z M96,29.1c0-0.5,0-1-0.1-1.5c0-0.5,0-1-0.1-1.5c-0.1-1-0.5-1.8-1.3-2.4c-0.7-0.5-1.4-0.8-2.3-0.9
		c-0.4,0-0.7,0-1.1,0c-0.3,0-0.7,0-1,0.1c-1.5,0.4-2.6,1.5-2.8,3.1c-0.1,0.8-0.1,1.5-0.1,2.3c0,1.1,0,2.3,0.1,3.4
		c0,0.4,0.1,0.7,0.2,1c0.5,1.6,1.8,2.5,3.2,2.6c0.4,0,0.8,0,1.2,0c0.3,0,0.6,0,0.9-0.1c1.5-0.4,2.5-1.3,2.9-2.8
		c0.1-0.3,0.1-0.7,0.1-1C95.9,30.7,96,29.9,96,29.1z"/>
	<path class="st0" d="M141.5,40.8c-0.1,0-0.2-0.1-0.4-0.1c-1.1-0.2-2.1-1.1-2.3-2.4c0-0.2,0-0.4,0-0.6c0-1.5,0-3,0-4.5
		c0-6.5,0-12.9,0-19.4c0-0.3,0-0.6,0.1-0.9c0.2-1.1,1.1-2.1,2.4-2.3c1.9-0.3,3.2,0.9,3.5,2.3c0,0.2,0.1,0.5,0.1,0.7
		c0,3.4,0,6.9,0,10.3c0,0.1,0,0.2,0,0.4c0.1,0.1,0.1,0,0.2-0.1c1-0.8,2-1.7,2.9-2.5c1.5-1.2,2.9-2.5,4.4-3.7c0.6-0.5,1.2-0.7,2-0.7
		c1.9,0.1,3,1.7,2.7,3.3c-0.1,0.7-0.5,1.3-1,1.7c-0.6,0.5-1.2,1.1-1.9,1.6c-1.3,1.1-2.5,2.2-3.8,3.2c-0.1,0.1-0.2,0.1-0.3,0.2
		c0.1,0.1,0.1,0.2,0.2,0.3c2.3,2.8,4.6,5.5,7,8.3c0.2,0.2,0.4,0.5,0.5,0.8c0.1,0.2,0.2,0.4,0.2,0.6c0,0.1,0,0.2,0.1,0.2
		c0,0.2,0,0.5,0,0.7c0,0.1-0.1,0.1-0.1,0.2c0,0.2,0,0.3-0.1,0.5c-0.4,0.9-1,1.5-2,1.7c-0.2,0-0.3,0.1-0.4,0.1c-0.1,0-0.3,0-0.4,0
		c-0.1,0-0.3-0.1-0.4-0.1c-0.6-0.1-1.2-0.5-1.6-0.9c-1.4-1.7-2.9-3.4-4.3-5.1c-0.9-1.1-1.9-2.2-2.8-3.4c-0.1-0.1-0.1-0.1-0.2-0.2
		c-0.3,0.3-0.6,0.5-0.9,0.8c0,0.1,0,0.3,0,0.4c0,1.8,0,3.6,0,5.4c0,0.2,0,0.5-0.1,0.7c-0.3,1.2-1.1,1.9-2.3,2.2
		c-0.1,0-0.2,0-0.3,0.1C141.9,40.8,141.7,40.8,141.5,40.8z"/>
	<path class="st0" d="M56.8,40.8c-0.3,0-0.6-0.1-0.9-0.1c-1.2-0.1-2.4-0.5-3.5-1.1c-1-0.5-1.8-1.3-2.4-2.2c-0.4-0.7-0.7-1.4-0.8-2.2
		c-0.1-0.6-0.2-1.2-0.1-1.9c0.1-1.6,0.8-2.9,2-4c0.8-0.7,1.8-1.2,2.8-1.5c0.9-0.3,1.7-0.4,2.6-0.5c0.9-0.1,1.8-0.1,2.7-0.1
		c1.2,0,2.4,0,3.6,0c0.2,0,0.3,0,0.5-0.1c0.3-0.1,0.5-0.3,0.5-0.7c0-0.7,0-1.3,0-2c0-0.9-0.3-1.7-0.9-2.3c-0.3-0.3-0.6-0.6-1-0.8
		c-0.5-0.2-1-0.4-1.5-0.4c-0.8-0.1-1.5-0.1-2.3,0c-0.5,0-1,0.1-1.4,0.2c-0.7,0.2-1.3,0.5-1.8,1c-0.5,0.4-0.9,0.8-1.3,1.3
		c-0.1,0.2-0.3,0.3-0.5,0.5c-0.2,0.1-0.5,0.2-0.7,0.3c-0.3,0-0.7,0.1-1,0c-0.3-0.1-0.5-0.2-0.7-0.4c-0.4-0.3-0.5-0.8-0.5-1.3
		c0-0.3,0.1-0.6,0.3-0.9c0.2-0.3,0.4-0.6,0.7-0.8c1.3-1.2,2.8-2,4.5-2.4c0.8-0.2,1.6-0.3,2.4-0.4c0.8-0.1,1.6,0,2.3,0.1
		c0.6,0.1,1.2,0.2,1.8,0.3c0.8,0.2,1.5,0.5,2.2,0.8c0.6,0.3,1.1,0.7,1.5,1.1c0.7,0.7,1.1,1.6,1.3,2.6c0.1,0.4,0.1,0.9,0.1,1.3
		c0,4.9,0,9.7,0,14.6c0,0.2,0,0.4,0,0.5c-0.2,0.6-0.5,1-1.1,1.3c-0.1,0-0.2,0-0.3,0.1c-0.2,0-0.3,0-0.5,0c-0.1,0-0.2-0.1-0.3-0.1
		c-0.7-0.2-1.2-0.7-1.3-1.5c0-0.1,0-0.2-0.1-0.3c0,0-0.1,0-0.1,0c-0.3,0.3-0.7,0.5-1.1,0.8c-0.5,0.3-1,0.5-1.5,0.7
		c-0.7,0.2-1.4,0.3-2,0.4c-0.3,0-0.6,0-0.9,0.1C57.8,40.8,57.3,40.8,56.8,40.8z M63.8,29.8c-0.1,0-0.2,0-0.2,0c-1.8,0-3.6,0-5.4,0
		c-0.6,0-1.2,0.1-1.8,0.2c-0.5,0.1-1,0.2-1.5,0.4c-0.8,0.3-1.3,0.8-1.7,1.6c-0.5,1.1-0.6,2.2-0.2,3.4c0.3,0.8,0.9,1.4,1.7,1.8
		c0.9,0.5,1.9,0.7,2.9,0.7c0.6,0,1.2,0,1.8-0.1c0.7-0.1,1.4-0.3,2.1-0.7c0.6-0.3,1.2-0.8,1.5-1.4c0.5-0.8,0.8-1.6,0.8-2.6
		c0-0.9,0-1.7,0-2.6C63.8,30.3,63.8,30.1,63.8,29.8z"/>
	<path class="st0" d="M31.5,40.8c-0.1-0.1-0.2-0.1-0.2-0.1c-0.7-0.2-1.3-0.9-1.3-1.7c0-0.2,0-0.4,0-0.6c0-8.6,0-17.2,0-25.9
		c0-0.2,0-0.3,0-0.5c0.2-0.7,0.6-1.2,1.3-1.4c0.1,0,0.1,0,0.2-0.1c0.2,0,0.3,0,0.5,0c0,0,0.1,0,0.1,0.1c0.7,0.1,1.4,0.8,1.4,1.6
		c0,0.1,0,0.3,0,0.4c0,4.8,0,9.5,0,14.3c0,0.1,0,0.2,0,0.4c0.1,0,0.2-0.1,0.2-0.1c0.7-0.6,1.4-1.3,2.2-1.9c1.6-1.5,3.3-2.9,4.9-4.4
		c0.9-0.8,1.8-1.6,2.7-2.4c0.3-0.3,0.7-0.5,1.2-0.5c0.7,0,1.3,0.5,1.5,1.2c0.2,0.6,0,1.2-0.5,1.6c-0.8,0.7-1.5,1.4-2.3,2.1
		c-1.6,1.4-3.2,2.9-4.8,4.3c-0.1,0.1-0.2,0.1-0.2,0.3c0.1,0.1,0.1,0.2,0.2,0.3c1,1.2,1.9,2.5,2.9,3.7c1.5,1.9,3,3.8,4.5,5.8
		c0.3,0.3,0.6,0.7,0.8,1c0.4,0.5,0.4,1.1,0.1,1.7c-0.2,0.4-0.5,0.7-0.9,0.8c-0.1,0-0.2,0.1-0.3,0.1c-0.1,0-0.2,0-0.3,0
		c-0.1,0-0.1-0.1-0.2-0.1c-0.4-0.1-0.8-0.4-1-0.7c-1.6-2-3.2-4.1-4.8-6.1c-1.1-1.4-2.2-2.7-3.2-4.1c-0.1-0.1-0.1-0.2-0.2-0.3
		c-0.2,0.1-2.3,2-2.5,2.2c0,0.1,0,0.2,0,0.4c0,2.2,0,4.4,0,6.6c0,0.1,0,0.2,0,0.3c0,0.9-0.6,1.5-1.3,1.7c-0.1,0-0.2,0.1-0.3,0.1
		C31.8,40.8,31.7,40.8,31.5,40.8z"/>
	<path class="st0" d="M107.9,40.8c-0.1,0-0.3-0.1-0.4-0.1c-1.2-0.3-2.1-1.2-2.3-2.4c0-0.1,0-0.3,0-0.4c0-0.2,0-0.4,0-0.6
		c0-7.9,0-15.8,0-23.7c0-0.5,0.1-1,0.4-1.5c0.5-0.8,1.1-1.3,2-1.4c1.9-0.3,3.2,1,3.5,2.4c0,0.3,0.1,0.5,0.1,0.8c0,0.4,0,0.8,0,1.1
		c0,7.5,0,15,0,22.6c0,0.3,0,0.6-0.1,1c-0.3,1.2-1,1.9-2.2,2.2c-0.1,0-0.3,0.1-0.4,0.1C108.3,40.8,108.1,40.8,107.9,40.8z"/>
	<path class="st0" d="M2.1,10.5c0,0,0.1,0,0.1,0.1c0.7,0.1,1.4,0.8,1.4,1.6c0,0.1,0,0.2,0,0.3c0,8.7,0,17.4,0,26.2
		c0,0.2,0,0.4,0,0.6c-0.2,0.7-0.6,1.1-1.2,1.3c-0.1,0-0.2,0.1-0.3,0.1c-0.2,0-0.3,0-0.5,0c-0.1-0.1-0.2-0.1-0.3-0.1
		c-0.6-0.2-1-0.7-1.2-1.3c0-0.1-0.1-0.2-0.1-0.3c0-9,0-17.9,0-26.9c0.1-0.1,0.1-0.2,0.1-0.3c0.2-0.7,0.6-1.1,1.3-1.3
		c0,0,0.1,0,0.1-0.1C1.8,10.5,2,10.5,2.1,10.5z"/>
	<path class="st0" d="M74.3,40.8c-0.1-0.1-0.2-0.1-0.2-0.1c-0.8-0.2-1.2-0.9-1.3-1.7c0-0.1,0-0.1,0-0.2c0-8.7,0-17.5,0-26.2
		c0-0.2,0-0.3,0-0.5c0.1-0.8,0.7-1.3,1.4-1.5c0,0,0.1,0,0.1-0.1c0.1,0,0.3,0,0.4,0c0.1,0,0.1,0,0.2,0.1c0.7,0.1,1.4,0.9,1.4,1.7
		c0,0.1,0,0.2,0,0.2c0,8.8,0,17.5,0,26.3c0,0.1,0,0.1,0,0.2c0,0.7-0.4,1.4-1.3,1.7c-0.1,0-0.2,0.1-0.3,0.1
		C74.6,40.8,74.4,40.8,74.3,40.8z"/>
	<path class="st0" d="M135.4,29.3c0,1-0.1,2.2-0.2,3.4c-0.1,0.6-0.2,1.2-0.4,1.8c-0.4,1.3-1,2.4-2,3.4c-0.8,0.8-1.7,1.4-2.7,1.8
		c-1,0.4-2.1,0.7-3.2,0.8c-0.5,0.1-1,0.1-1.5,0.1c-0.6,0-1.2,0-1.8,0c-1.6-0.1-3.2-0.5-4.7-1.2c-1.1-0.6-2-1.4-2.7-2.4
		c-0.7-1-1.1-2.1-1.3-3.3c-0.2-1-0.3-1.9-0.3-2.9c-0.1-0.9-0.1-1.9,0-2.8c0.1-1.4,0.2-2.8,0.6-4.2c0.3-1.2,1-2.3,1.8-3.2
		c0.5-0.6,1.1-1,1.8-1.4c1-0.5,2-0.9,3.1-1.1c0.9-0.2,1.9-0.3,2.9-0.3c0.4,0,0.9,0,1.3,0c1.7,0.1,3.3,0.5,4.9,1.3
		c1.4,0.7,2.5,1.7,3.2,3.1c0.4,0.7,0.6,1.5,0.8,2.2c0.2,0.9,0.3,1.7,0.4,2.6C135.3,27.6,135.4,28.3,135.4,29.3z M129.3,29.6
		C129.3,29.6,129.3,29.6,129.3,29.6c0-0.1,0-0.1,0-0.2c0-1.1,0-2.2-0.1-3.2c0-0.5-0.2-1-0.4-1.5c-0.6-1.1-1.5-1.7-2.7-1.9
		c-0.6-0.1-1.1-0.1-1.7-0.1c-0.3,0-0.6,0-1,0.1c-1.5,0.4-2.4,1.3-2.7,2.8c-0.1,0.4-0.1,0.7-0.1,1.1c0,0.7-0.1,1.4-0.1,2.1
		c0,0.6,0,1.1,0,1.7c0,0.5,0,1.1,0.1,1.6c0,0.5,0.2,1,0.5,1.5c0.6,0.9,1.4,1.5,2.5,1.7c0.6,0.1,1.3,0.1,1.9,0.1c0.3,0,0.7-0.1,1-0.1
		c1.6-0.4,2.7-1.8,2.7-3.4c0-0.4,0-0.8,0.1-1.2C129.3,30.4,129.3,30,129.3,29.6z"/>
	<path class="st0" d="M7.3,29.3c0-0.9,0-1.8,0.1-2.8c0.1-1,0.3-2,0.6-2.9c0.3-0.9,0.8-1.8,1.4-2.6c0.2-0.3,0.5-0.5,0.8-0.7
		c0.9-0.7,1.9-1.2,3-1.6c0.9-0.3,1.8-0.5,2.7-0.5c0.8,0,1.6-0.1,2.4,0c2,0.2,3.8,0.9,5.4,2.1c0.5,0.4,0.9,0.9,1.2,1.4
		c0.6,0.9,1,1.9,1.2,3c0.2,0.9,0.3,1.9,0.4,2.8c0.1,1,0.1,2,0,3c0,1.1-0.1,2.2-0.3,3.3c-0.2,0.9-0.5,1.8-0.9,2.7
		c-0.7,1.3-1.7,2.3-3,3c-0.9,0.5-2,0.8-3,1c-0.6,0.1-1.2,0.1-1.8,0.1c-0.4,0-0.7,0-1.1,0c-1.4,0-2.7-0.3-3.9-0.8
		c-0.9-0.4-1.7-0.9-2.4-1.5c-0.7-0.7-1.2-1.4-1.6-2.3c-0.4-0.8-0.6-1.6-0.7-2.5c-0.2-1.2-0.3-2.5-0.3-3.7
		C7.3,29.7,7.3,29.5,7.3,29.3z M11,30.6c0,0.8,0.1,1.6,0.1,2.4c0,1,0.3,1.9,0.9,2.6c1.1,1.5,2.5,2.2,4.3,2.3c0.4,0,0.8,0,1.2,0
		c0.3,0,0.5,0,0.8-0.1c1.3-0.2,2.5-0.8,3.4-1.8c0.6-0.7,1-1.5,1.2-2.5c0-0.3,0-0.6,0.1-1c0-1.1,0.1-2.2,0.1-3.3c0-0.5,0-0.9,0-1.4
		c0-0.7-0.1-1.5-0.1-2.2c0,0,0-0.1,0-0.1c-0.1-1.1-0.6-2.1-1.4-2.9c-1.1-1.1-2.5-1.6-4-1.6c-0.2,0-0.5,0-0.7,0c-0.3,0-0.6,0-0.9,0.1
		c-1.3,0.2-2.4,0.8-3.3,1.8c-0.7,0.7-1.1,1.5-1.2,2.5c0,0.3-0.1,0.6-0.1,0.9c0,0.6-0.1,1.3-0.1,1.9C11,28.9,11,29.7,11,30.6z"/>
</g>
</svg>
