<?xml version="1.0" encoding="utf-8"?>
<svg version="1.1" id="Layer_1" xmlns="http://www.w3.org/2000/svg" x="0px" y="0px"
	 viewBox="0 0 158 48" style="enable-background:new 0 0 158 48;" xml:space="preserve">
<style type="text/css">
	.st0{fill:#64748B;}
</style>
<g>
	<path class="st0" d="M79.9,9.7c4.1,0,8.2,0,12.3,0c3.2,0,4.7,1.4,4.7,4.6c0,7.2,0,14.4,0,21.5c0,3.1-1.4,4.5-4.5,4.5
		c-8.3,0-16.6,0-24.9,0c-3.1,0-4.5-1.5-4.5-4.6c0-7.1,0-14.3,0-21.4c0-3.2,1.4-4.6,4.6-4.6C71.6,9.7,75.8,9.7,79.9,9.7z M81.6,34.9
		c0-6.6,0-13.1,0-19.6c1.2,0,2.3,0,3.4,0c0-0.9,0-1.6,0-2.4c-3.6,0-7,0-10.6,0c0,0.8,0,1.5,0,2.4c0.7,0,1.4,0.1,2.1,0
		c1.2-0.2,1.4,0.3,1.4,1.4c0,5.6,0,11.2,0,16.9c0,0.4,0,0.8,0,1.4c-1.3,0-2.4,0-3.5,0c0,0.9,0,1.6,0,2.4c3.6,0,7.1,0,10.6,0
		c0-0.8,0-1.6,0-2.4C83.8,34.9,82.7,34.9,81.6,34.9z"/>
	<path class="st0" d="M139.3,13.9c3.2,0,6.4-0.1,9.5,0c2.9,0.1,5.2,2.1,5.7,4.6c0.6,2.8-0.7,5.5-3.3,7c-0.4,0.2-0.9,0.5-1.5,0.8
		c2.8,3.1,5.6,6.2,8.4,9.3c-2.1,0.8-4.1,0.3-5.5-1.3c-1.7-2-3.5-3.9-5.2-5.9c-0.9-1-1.8-1.6-3.1-1.4c-0.5,0.1-1,0-1.6,0
		c0,2.9,0,5.8,0,8.7c-1.2,0-2.2,0-3.4,0C139.3,28.5,139.3,21.2,139.3,13.9z M142.7,24.7c1.9-0.1,3.7-0.1,5.4-0.4
		c1.9-0.3,2.9-2,2.9-4.1c0-1.9-0.8-3.1-2.9-3.4c-1.8-0.3-3.6-0.2-5.5-0.3C142.7,19.2,142.7,21.8,142.7,24.7z"/>
	<path class="st0" d="M134,33.1c0,1,0,1.8,0,2.7c-5,0-10,0-15.1,0c0-7.3,0-14.6,0-21.9c5,0,10,0,15.1,0c0,0.8,0,1.7,0,2.7
		c-3.9,0-7.8,0-11.8,0c0,2,0,3.9,0,5.9c3.7,0,7.3,0,11,0c0,0.9,0,1.7,0,2.6c-3.6,0-7.3,0-11,0c0,2.7,0,5.3,0,8.1
		C126.1,33.1,130,33.1,134,33.1z"/>
	<path class="st0" d="M18,13.8c1.1,0,2.1,0,3.2,0c0,0.5,0,1,0,1.4c0,4.2,0,8.5,0,12.7c0,4.8,3.9,7.2,8.4,5.2
		c1.9-0.9,2.5-2.6,2.5-4.6c0-4.4,0-8.8,0-13.2c0-0.5,0-0.9,0-1.5c1.1,0,2.1,0,3.2,0c0,0.1,0.1,0.3,0.1,0.5c0,4.6,0,9.2,0,13.8
		c0,6.3-4.3,8.3-9.6,8.1c-0.6,0-1.3-0.1-1.9-0.2c-3.4-0.6-5.8-2.8-6-6.2C17.8,24.5,18,19.2,18,13.8z"/>
	<path class="st0" d="M59,30.7c0,1.1,0,2,0,2.9c0,0.3-0.3,0.7-0.5,0.9c-3.5,1.7-7.2,2.3-10.9,1.2c-4.6-1.4-6.6-4.8-7.1-9.3
		c-0.6-5.3,1.5-10,5.5-11.9c4.2-2,8.4-1.5,12.5,0.4c0.3,0.1,0.5,0.5,0.6,0.8c0.1,1,0,1.9,0,3.2c-0.6-0.4-1-0.6-1.4-0.9
		c-1.7-1.2-3.5-2-5.6-2.1c-3.4-0.3-6.3,1.6-7.5,4.8c-0.8,2.3-0.9,4.6-0.3,6.9c1.3,4.9,5.8,7.1,10.7,5.1C56.2,32.3,57.5,31.5,59,30.7
		z"/>
	<path class="st0" d="M113.9,22.5c0,1,0,1.8,0,2.7c-3.6,0-7.1,0-10.8,0c0,3.6,0,7,0,10.6c-1.2,0-2.1,0-3.2,0c0-7.3,0-14.6,0-22
		c4.7,0,9.5,0,14.3,0c0,0.8,0,1.7,0,2.6c-3.7,0-7.3,0-11,0c0,2,0,4,0,6.1C106.7,22.5,110.2,22.5,113.9,22.5z"/>
	<path class="st0" d="M14,33c0,1,0,1.8,0,2.7c-4.7,0-9.3,0-14,0c0-7.3,0-14.5,0-21.9c1,0,2,0,3.2,0c0,6.4,0,12.8,0,19.2
		C6.8,33,10.4,33,14,33z"/>
</g>
</svg>
