<?xml version="1.0" encoding="utf-8"?>
<svg version="1.1" id="Layer_1" xmlns="http://www.w3.org/2000/svg" x="0px" y="0px"
	 viewBox="0 0 158 48" style="enable-background:new 0 0 158 48;" xml:space="preserve">
<style type="text/css">
	.st0{fill:#64748B;}
</style>
<g>
	<path class="st0" d="M61.2,10.2c1.4,0,2.7,0,4,0c0,9.5,0,19,0,28.6c-1.3,0-2.6,0-4,0c0-5.2,0-10.3,0-15.4c-0.1,0-0.2,0-0.2,0
		c-0.6,2.3-1.2,4.6-1.8,7c-0.4,1.7-0.9,3.4-1.3,5.1c-0.2,0.9-0.7,0.8-1.4,0.8c-0.6,0-1.1,0-1.3-0.8c-0.9-3.9-2-7.8-2.9-11.7
		c-0.1-0.2-0.1-0.4-0.3-0.7c0,5.2,0,10.5,0,15.8c-1.4,0-2.6,0-4,0c0-9.5,0-19,0-28.6c1.3,0,2.6,0,4,0c1.5,5.2,3,10.5,4.6,16.1
		C58.2,20.8,59.7,15.6,61.2,10.2z"/>
	<path class="st0" d="M122.2,24.5c0-3.9,0-7.7,0-11.6c0-2.1,0.6-2.7,2.7-2.7c3.1,0,6.3,0,9.4,0c1.8,0,2.4,0.6,2.4,2.4
		c0,7.9,0,15.9,0,23.8c0,1.9-0.7,2.5-2.6,2.5c-3.1,0-6.2,0-9.3,0c-2,0-2.6-0.7-2.6-2.7C122.2,32.4,122.2,28.4,122.2,24.5z M132.4,14
		c-2,0-3.9,0-5.8,0c0,7.1,0,14.1,0,21.2c2,0,3.8,0,5.8,0C132.4,28.1,132.4,21.1,132.4,14z"/>
	<path class="st0" d="M83.3,24.6c0,3.9,0,7.9,0,11.8c0,1.8-0.7,2.5-2.5,2.5c-3.2,0-6.4,0-9.6,0c-1.8,0-2.5-0.7-2.5-2.5
		c0-8,0-15.9,0-23.9c0-1.8,0.6-2.4,2.5-2.4c3.2,0,6.5,0,9.7,0c1.7,0,2.4,0.6,2.4,2.3C83.3,16.6,83.3,20.6,83.3,24.6z M73.2,13.9
		c0,7.1,0,14.1,0,21.2c2,0,3.9,0,5.8,0c0-7.1,0-14.1,0-21.2C77,13.9,75.2,13.9,73.2,13.9z"/>
	<path class="st0" d="M108.6,38.9c-1.5,0-2.9,0-4.3,0c0-9.6,0-19.1,0-28.6c1.4,0,2.7,0,4.2,0c0,3.9,0,7.7,0,11.6c2,0,3.8,0,5.8,0
		c0-3.9,0-7.7,0-11.6c1.5,0,2.9,0,4.3,0c0,9.5,0,19,0,28.6c-1.4,0-2.7,0-4.2,0c0-4.2,0-8.5,0-12.8c-2,0-3.9,0-5.9,0
		C108.6,30.4,108.6,34.6,108.6,38.9z"/>
	<path class="st0" d="M37.6,10.2c-1.6,3.8-3,7.4-4.8,10.9c-1,2-1,3.7,0,5.8c1.8,3.5,3.2,7.2,4.8,10.8c0.2,0.4,0.3,0.7,0.5,1.3
		c-1.5,0-2.9,0.1-4.3,0c-0.3,0-0.7-0.6-0.9-1c-1.5-3.5-3-6.9-4.5-10.4c-0.1-0.3-0.2-0.5-0.5-1.1c0,4.3,0,8.3,0,12.4
		c-1.5,0-2.9,0-4.4,0c0-9.5,0-19,0-28.5c1.4,0,2.8,0,4.3,0c0,3.8,0,7.6,0,11.3c0.1,0,0.1,0,0.2,0.1c0.7-1.7,1.3-3.3,2-5
		c0.7-1.8,1.5-3.7,2.2-5.6c0.2-0.7,0.6-1,1.3-0.9C34.9,10.2,36.1,10.2,37.6,10.2z"/>
	<path class="st0" d="M96.4,13.9c-1.8,0-3.5,0-5.3,0c0,1.6,0,3.2,0,4.8c0,0.3,0.4,0.7,0.6,1c2.5,2.4,5,4.8,7.6,7.1
		c0.9,0.9,1.4,1.9,1.3,3.1c0,2.2,0,4.4,0,6.6c0,1.8-0.7,2.5-2.4,2.5c-3,0-6.1,0-9.1,0c-1.7,0-2.4-0.7-2.4-2.4c0-2.2,0-4.4,0-6.6
		c0-0.1,0-0.2,0.1-0.4c1.4,0,2.7,0,4.3,0c0,1.9,0,3.8,0,5.7c1.8,0,3.5,0,5.3,0c0-1.8,0-3.5,0-5.3c0-0.3-0.4-0.7-0.7-1
		c-2.5-2.4-5-4.8-7.6-7.1c-0.9-0.9-1.4-1.9-1.3-3.1c0.1-2,0-4.1,0-6.1c0-1.8,0.6-2.5,2.4-2.5c3.1,0,6.2,0,9.3,0
		c1.3,0,2.1,0.6,2.2,1.8c0.1,2.3,0,4.7,0,7.1c-1.5,0-2.8,0-4.3,0C96.4,17.4,96.4,15.7,96.4,13.9z"/>
	<path class="st0" d="M6.2,29.5c1.5,0,2.8,0,4.3,0c0,1.9,0,3.8,0,5.7c1.8,0,3.5,0,5.3,0c0-1.8,0-3.5,0-5.3c0-0.3-0.4-0.7-0.6-1
		c-2.5-2.4-5-4.8-7.6-7.1c-0.9-0.9-1.4-1.8-1.4-3.1c0.1-2.1,0-4.2,0-6.2c0-1.7,0.7-2.4,2.4-2.4c3.1,0,6.1,0,9.2,0
		c1.7,0,2.3,0.7,2.3,2.3c0,2.1,0,4.2,0,6.2c0,0.1,0,0.2-0.1,0.4c-1.4,0-2.7,0-4.2,0c0-1.8,0-3.5,0-5.3c-1.8,0-3.5,0-5.3,0
		c0,1.6,0,3.2,0,4.8c0,0.4,0.4,0.8,0.7,1.1c2.5,2.4,5,4.7,7.5,7c0.9,0.9,1.4,1.8,1.4,3.1c0,2.2,0,4.5,0,6.7c0,1.7-0.7,2.4-2.4,2.4
		c-3.1,0-6.1,0-9.2,0c-1.6,0-2.3-0.7-2.3-2.3C6.2,34.3,6.2,32,6.2,29.5z"/>
	<path class="st0" d="M140.3,38.9c0-9.5,0-19,0-28.6c0.2,0,0.5-0.1,0.7-0.1c3.6,0,7.3,0,10.9,0c1.6,0,2.2,0.6,2.2,2.1
		c0,4.7,0,9.4,0,14c0,1.5-0.6,2.1-2.2,2.1c-2.4,0-4.8,0-7.3,0c0,3.5,0,6.9,0,10.4C143.1,38.9,141.7,38.9,140.3,38.9z M149.8,13.9
		c-1.8,0-3.4,0-5.2,0c0,3.6,0,7.2,0,10.8c1.8,0,3.4,0,5.2,0C149.8,21.1,149.8,17.6,149.8,13.9z"/>
	<path class="st0" d="M44.2,38.9c-1.4,0-2.7,0-4.1,0c0-9.6,0-19.1,0-28.6c1.4,0,2.7,0,4.1,0C44.2,19.8,44.2,29.3,44.2,38.9z"/>
</g>
</svg>
